PathFileType	4	(X/Y/Z)	 s02c0401.trc
DataRate	CameraRate	NumFrames	NumMarkers	Units	OrigDataRate	OrigDataStartFrame	OrigNumFrames
200	200	6	50	mm	200	751	2000
Frame#	Time	racr			lacr			c7			jug			rlel			rdr			llel			ldr			s2			lic			ric			lasi			rasi			rpsi			lpsi			rgt			lgt			rth1			rth2			rth3			rth4			rlfc			rmfc			rsh1			rsh2			rsh3			rsh4			rlmal			rmmal			rtoe			rmt5			rmt1			lth1			lth2			lth4			lth3			llfc			lmfc			lsh1			lsh2			lsh3			lsh4			llmal			lmmal			lcal			ltoe			lmt5			SBIKE			LBIKE			RBIKE			
		X1	Y1	Z1	X2	Y2	Z2	X3	Y3	Z3	X4	Y4	Z4	X5	Y5	Z5	X6	Y6	Z6	X7	Y7	Z7	X8	Y8	Z8	X9	Y9	Z9	X10	Y10	Z10	X11	Y11	Z11	X12	Y12	Z12	X13	Y13	Z13	X14	Y14	Z14	X15	Y15	Z15	X16	Y16	Z16	X17	Y17	Z17	X18	Y18	Z18	X19	Y19	Z19	X20	Y20	Z20	X21	Y21	Z21	X22	Y22	Z22	X23	Y23	Z23	X24	Y24	Z24	X25	Y25	Z25	X26	Y26	Z26	X27	Y27	Z27	X28	Y28	Z28	X29	Y29	Z29	X30	Y30	Z30	X31	Y31	Z31	X32	Y32	Z32	X33	Y33	Z33	X34	Y34	Z34	X35	Y35	Z35	X36	Y36	Z36	X37	Y37	Z37	X38	Y38	Z38	X39	Y39	Z39	X40	Y40	Z40	X41	Y41	Z41	X42	Y42	Z42	X43	Y43	Z43	X44	Y44	Z44	X45	Y45	Z45	X46	Y46	Z46	X47	Y47	Z47	X48	Y48	Z48	X49	Y49	Z49	X50	Y50	Z50	
751	3.7550	662.090884	1237.409806	-165.634483	623.912332	1229.598086	-507.463804	631.086353	1279.729718	-343.525088	572.380444	1146.988371	-330.209075	563.375475	1015.041324	-43.495176	706.676436	888.091475	-115.133198	515.371990	985.666995	-612.913681	689.376243	894.069024	-512.514450	73.113783	1154.119641	-301.552101	212.694810	1112.291279	-443.398320	206.785557	1139.537694	-165.045400	245.940636	1077.505040	-417.234013	236.059270	1093.600117	-186.975527	110.382326	1194.355642	-257.875632	117.614020	1188.793206	-340.109905	154.666940	1077.367631	-112.523073	136.425611	1040.426835	-471.723973	230.768900	1040.016176	-109.705604	315.873295	1018.497854	-114.429432	380.540860	967.693145	-89.028255	329.897357	1040.330870	-142.797515	486.533155	864.185831	-119.237369	475.008441	854.074430	-233.078486	424.738897	769.506262	-113.891806	366.728012	707.308863	-141.120809	288.078316	672.002620	-137.259825	376.345277	702.342095	-178.732008	187.047255	611.092572	-148.835475	200.640768	630.384098	-229.042394	360.930776	482.241386	-185.249603	253.429813	508.516756	-129.119377	284.787532	508.811764	-237.283173	199.166684	914.365719	-496.209194	240.583304	837.298191	-493.774307	272.771321	845.360434	-476.650530	235.864437	748.568073	-494.117990	261.211231	655.369742	-469.240585	261.109526	624.246203	-372.648048	250.187793	554.755991	-497.037861	272.554183	471.988140	-484.749015	248.627475	384.230122	-488.106697	290.465745	473.818057	-448.014306	237.828752	275.612247	-476.149086	256.514891	267.708365	-403.302534	173.566806	237.617127	-439.118450	452.622783	157.808259	-438.039276	345.462213	162.292861	-501.854787	-162.552866	859.744490	-312.514361	37.243493	86.376911	-514.297946	34.150296	83.142252	-114.082603	
752	3.7600	662.262799	1237.393102	-163.885020	625.135119	1230.262490	-506.099014	632.083352	1280.243783	-341.841852	573.227577	1147.707988	-329.233641	563.773039	1014.471719	-43.148122	706.528802	888.028864	-115.246430	515.957466	986.695767	-611.870887	689.385915	893.665844	-512.111443	73.749715	1155.692548	-302.180551	213.800329	1113.251662	-443.433325	206.606009	1141.226651	-165.260585	246.845335	1078.268149	-417.171917	236.083246	1095.417882	-187.065380	110.861088	1196.022315	-258.724368	118.468255	1190.248945	-340.994417	154.342312	1079.414650	-112.785808	136.861700	1041.243716	-471.828717	230.339647	1042.190994	-109.597016	315.501775	1020.818067	-113.912441	379.844442	969.929646	-88.670689	329.615724	1042.699635	-142.226542	486.751134	866.953510	-117.944972	475.729402	856.895583	-231.804445	425.780434	771.635918	-112.964096	368.474408	708.816534	-140.385335	290.091330	672.913782	-136.854793	378.224495	704.116625	-177.948675	189.576479	611.082482	-148.849396	202.875273	630.682790	-228.743731	365.826371	485.707740	-184.979903	257.699690	509.983311	-128.993212	289.309766	510.868137	-237.076588	198.249078	914.634573	-496.543035	238.596973	836.990086	-494.244834	270.855273	844.573519	-477.157847	232.621331	748.268165	-494.712745	256.834692	654.894062	-469.500559	255.600768	624.725410	-373.165710	245.697000	554.729958	-497.183504	268.353138	472.080644	-485.112490	244.643448	384.185776	-488.385230	286.355974	473.886740	-448.298271	234.701690	275.578682	-476.536017	253.418518	267.251025	-404.252040	169.995865	238.797742	-439.256683	447.830828	154.855686	-438.069024	340.776962	160.851789	-501.826735	-162.632556	860.350390	-310.722779	37.231118	86.382558	-514.277218	34.162473	83.137022	-114.051187	
753	3.7650	662.954382	1237.268558	-162.992043	626.399205	1230.899704	-504.568429	633.149841	1280.669267	-340.146974	574.798431	1148.037160	-328.376365	562.042841	1013.732565	-43.365648	706.386744	887.977958	-115.303639	516.668052	987.662415	-610.834716	689.615683	893.128236	-511.507023	74.388204	1157.346625	-303.115979	214.926577	1114.284283	-443.472204	206.470850	1143.067959	-165.515353	247.717828	1079.250664	-417.139265	236.184697	1097.320525	-187.067247	111.299563	1197.772513	-259.531812	119.222967	1191.735142	-341.899954	154.054443	1081.546940	-113.082516	137.346620	1042.146781	-471.926778	229.969354	1044.403196	-109.510791	315.171333	1023.205285	-113.378363	379.474441	972.386227	-87.829008	329.417528	1045.007760	-141.658110	486.881628	869.643043	-116.762936	476.566303	859.597990	-230.620970	426.908176	773.536121	-112.127574	370.199746	710.659863	-139.817955	292.235009	673.889809	-136.587870	380.295069	706.072324	-177.289449	188.588827	608.524326	-153.348786	205.461113	630.935783	-228.419463	370.765379	488.916369	-184.769468	262.037349	511.249481	-128.850598	293.904363	512.740438	-236.858540	197.328274	915.012905	-496.816160	236.619855	836.786833	-494.693636	268.943838	843.886678	-477.591727	229.344748	748.113407	-495.397395	252.578377	654.519583	-469.819887	252.098561	624.339075	-373.150387	241.281639	554.930772	-497.365932	264.222495	472.255014	-485.381133	240.725312	384.566331	-488.902351	282.282089	474.097844	-448.664190	231.364262	275.922816	-476.740413	250.304283	266.967242	-405.158514	166.443664	240.109242	-439.333085	443.029696	152.115563	-438.110459	336.093963	159.621190	-501.819645	-162.662193	860.378401	-310.538865	37.231211	86.354696	-514.273762	34.166619	83.130460	-114.053184	
754	3.7700	663.184354	1237.140971	-161.255376	627.773013	1231.438198	-502.982954	634.185774	1281.033332	-338.399004	575.873211	1148.519960	-327.361411	561.469693	1013.132637	-43.388791	706.268312	887.946447	-115.325551	517.297303	988.726509	-609.885504	689.712615	892.630154	-511.119152	75.024040	1159.057126	-303.744074	215.953990	1115.493406	-443.624850	206.331531	1144.915335	-165.723480	248.577805	1080.192017	-417.117795	236.240726	1099.146923	-187.140296	111.754519	1199.531379	-260.322576	120.230589	1193.339999	-342.714245	153.786949	1083.706191	-113.343598	137.808474	1043.191982	-471.990371	229.660845	1046.652763	-109.426023	314.902828	1025.584864	-112.987133	379.156763	974.912263	-86.949201	329.349787	1047.696780	-140.725108	487.037285	872.329391	-115.640303	477.306606	862.403276	-229.412398	428.088129	775.518981	-111.295961	372.161568	711.991761	-139.150520	294.709321	674.257235	-136.649441	382.301518	707.891199	-176.771435	195.194499	611.047904	-148.529907	208.254409	630.967885	-228.362009	375.795138	491.871809	-184.512119	266.558216	512.368196	-128.689163	298.569752	514.445653	-236.748592	196.440773	915.453242	-497.073849	234.677042	836.752885	-495.143204	267.083222	843.403010	-478.026953	226.230949	748.143645	-495.995627	248.485796	654.581046	-470.000219	248.039578	623.973653	-373.110240	236.978607	555.345492	-497.547936	260.137628	472.703279	-485.747874	236.840620	384.936041	-489.213663	278.289666	474.514666	-449.004285	228.235460	276.367890	-477.217260	247.169491	266.864132	-406.011542	162.927767	241.631252	-439.456149	438.123131	149.421479	-438.061320	331.345334	158.545101	-501.821977	-162.633980	860.391573	-310.501858	37.232307	86.474701	-514.348026	34.152634	83.168099	-114.106864	
755	3.7750	663.437355	1237.013481	-159.527273	629.163104	1231.923020	-501.290861	635.292221	1281.389281	-336.560588	576.886476	1149.053373	-326.241468	560.915813	1012.587772	-43.259493	706.124660	887.959380	-115.399153	518.038527	989.592546	-608.908326	689.863038	892.208189	-510.777131	75.669217	1160.792295	-304.472078	217.043780	1116.618194	-443.619330	206.219798	1146.815664	-165.922268	249.502105	1081.414151	-417.217320	236.352127	1101.091614	-187.133768	112.325708	1201.338867	-261.155884	121.056665	1195.059867	-343.539040	153.567593	1085.927465	-113.607393	138.306409	1044.302593	-472.073037	229.392248	1048.930448	-109.350072	314.678297	1027.920127	-112.596975	378.871369	977.270060	-86.236673	329.240908	1050.086015	-140.012282	487.206782	874.954703	-114.489567	478.121660	865.079561	-228.396761	429.514310	777.868728	-109.665261	374.153186	713.616510	-138.721656	297.077020	674.891207	-136.484037	384.443298	709.443967	-176.226177	197.861236	610.658072	-148.952202	211.202968	630.818110	-228.441657	380.831467	494.673379	-183.899472	271.102752	513.341606	-128.604628	303.300106	515.978588	-236.659719	195.578858	916.083181	-497.328157	232.856639	836.933127	-495.559621	265.285341	843.071103	-478.422629	223.162941	748.389710	-496.519912	244.484150	654.732988	-470.288687	243.905592	624.274169	-373.279655	232.813372	555.772266	-497.757482	256.150851	473.266652	-486.110777	232.904158	385.470483	-490.012994	274.410239	475.075703	-449.419896	225.040851	276.908824	-477.531479	244.011446	266.948811	-406.800710	159.384418	243.256114	-439.614554	433.171805	146.951865	-438.087418	326.541884	157.636007	-501.833314	-162.632395	860.344706	-310.507592	37.237078	86.485096	-514.333464	33.934198	83.207879	-114.651254	
756	3.7800	663.599032	1236.852206	-157.744600	630.528630	1232.429016	-499.643515	636.113057	1281.558838	-334.900156	578.291551	1149.103884	-325.274135	560.392063	1012.004227	-43.192311	705.973330	887.954268	-115.510305	518.855137	990.613822	-607.849814	690.057918	891.818943	-510.430485	76.336074	1162.569059	-305.282605	218.078813	1117.925103	-443.697252	206.121338	1148.783381	-166.133078	250.328095	1082.390352	-417.008507	236.523282	1102.925794	-186.971516	112.920992	1203.198935	-261.930545	121.997683	1196.720346	-344.345262	153.420880	1088.178925	-113.855310	138.704880	1045.586467	-472.142622	229.205259	1051.220257	-109.301461	314.506583	1030.203132	-112.207589	378.619510	979.593675	-85.477911	329.222283	1052.478873	-139.399097	487.281741	877.468017	-113.504960	478.802404	867.855352	-227.431796	430.857721	779.719876	-108.898804	370.074691	713.228999	-141.601410	299.578574	675.473425	-136.346082	387.161818	711.838906	-174.967412	201.010330	610.112794	-149.154370	214.352962	630.529195	-228.539890	385.860111	497.087064	-183.458928	275.717156	514.006010	-128.491833	308.192893	517.215333	-236.494247	194.761331	916.808928	-497.513184	231.067400	837.213581	-496.001323	263.557159	842.925881	-478.828908	220.236358	748.786455	-497.034188	240.697119	654.999043	-470.560027	240.009070	624.899611	-373.583397	228.737155	556.410235	-498.067620	252.253882	473.859821	-486.460987	229.158861	386.098152	-490.435660	270.626791	475.730681	-449.887925	221.605798	277.647885	-477.846924	240.827450	267.228396	-407.515605	155.804828	244.985111	-439.826346	428.186823	144.760879	-438.101005	321.775105	156.843990	-501.854818	-162.607576	860.504518	-310.240105	37.232660	86.479375	-514.322215	33.933215	83.201214	-114.648651	
